<svg xmlns="http://www.w3.org/2000/svg" width="28.705" height="24" viewBox="0 0 28.705 24"><defs><style>.a,.d{fill:#424242;}.a{font-size:11px;font-family:ProximaNova-Bold, Proxima Nova;font-weight:700;}.b{fill:#007fff;}.c{fill:#fafafa;}</style></defs><g transform="translate(0 -16.004)"><text class="a" transform="translate(24.705 37.004)"><tspan x="-3.41" y="0">0</tspan></text><path class="b" d="M109.221,80.249A.68.68,0,0,0,108.7,80H92.2a.678.678,0,0,0-.656.855l2.174,8.126a.679.679,0,0,0,.656.5h.034l12.963-.652a.681.681,0,0,0,.635-.556l1.359-7.474A.675.675,0,0,0,109.221,80.249Z" transform="translate(-87.637 -61.282)"/><g transform="translate(8.153 21.439)"><path class="c" d="M384.679,148.08A.68.68,0,0,1,384,147.4v-2.718a.679.679,0,0,1,1.359,0V147.4A.68.68,0,0,1,384.679,148.08Z" transform="translate(-375.847 -144.004)"/><path class="c" d="M288.679,148.08A.68.68,0,0,1,288,147.4v-2.718a.679.679,0,1,1,1.359,0V147.4A.68.68,0,0,1,288.679,148.08Z" transform="translate(-283.924 -144.004)"/><path class="c" d="M192.679,148.08A.68.68,0,0,1,192,147.4v-2.718a.679.679,0,0,1,1.359,0V147.4A.68.68,0,0,1,192.679,148.08Z" transform="translate(-192 -144.004)"/></g><g transform="translate(0 16.004)"><circle class="d" cx="2" cy="2" r="2" transform="translate(7.705 16)"/><ellipse class="d" cx="2.5" cy="2" rx="2.5" ry="2" transform="translate(14.705 16)"/><path class="d" d="M18.344,30.951H7.474a.678.678,0,0,1-.656-.5L3.324,17.363H.679A.679.679,0,0,1,.679,16H3.845a.678.678,0,0,1,.656.5L8,29.592H18.344a.679.679,0,1,1,0,1.359Z" transform="translate(0 -16.004)"/></g></g></svg>