<svg xmlns="http://www.w3.org/2000/svg" width="25" height="25" viewBox="0 0 25 25"><defs><style>.a{fill:#0a71d9;}.b{fill:#424242;}.c{fill:#007fff;}</style></defs><g transform="translate(0 -0.004)"><path class="a" d="M39.947,13.546a3.125,3.125,0,1,1,0-6.25H42.03V3.129A3.129,3.129,0,0,0,38.9,0h-11.2a1.041,1.041,0,0,0-.973,1.412l7.552,19.792a1.04,1.04,0,0,0,.973.671H38.9a3.129,3.129,0,0,0,3.125-3.125V13.546Zm0,0" transform="translate(-25.363)"/><path class="b" d="M283.183,117a1.044,1.044,0,0,1-.643-.963v-3.125h-4.167a1.042,1.042,0,1,1,0-2.083h4.167v-3.125a1.041,1.041,0,0,1,1.778-.736l4.167,4.167a1.041,1.041,0,0,1,0,1.473l-4.167,4.167A1.042,1.042,0,0,1,283.183,117Zm0,0" transform="translate(-263.79 -101.454)"/><path class="c" d="M9.007,2.256,2.747.17A2.1,2.1,0,0,0,0,2.15V20.9a2.094,2.094,0,0,0,1.41,1.977l6.258,2.086a2.2,2.2,0,0,0,.665.1,2.085,2.085,0,0,0,2.083-2.083V4.233a2.094,2.094,0,0,0-1.41-1.977Zm0,0" transform="translate(0 -0.063)"/></g></svg>