<svg xmlns="http://www.w3.org/2000/svg" width="42.732" height="46.629" viewBox="0 0 42.732 46.629"><defs><style>.a{fill:#135370;}.b{fill:#f4c892;}.c{fill:#fed9a8;}.d{fill:#f4ce9f;}.e{fill:#1e608b;}.f{fill:#cfcfcf;}.g{fill:#c2c4c6;}.h{fill:#9c9da0;}.i{fill:#8d8f93;}.j{fill:#fff;}.k{fill:#4d4d4d;}.l{fill:#353535;}</style></defs><path class="a" d="M113.964,20.083s0-.009,0-.013c0-2.687-7.081-20.07-15.817-20.07S82.331,17.383,82.331,20.07c0,0,0,.009,0,.013s0,.008,0,.012c0,2.5,10.664,15.66,15.817,15.66,5.041,0,15.817-13.157,15.817-15.66,0,0,0-.009,0-.013Z" transform="translate(-76.781)"/><g transform="translate(9.122 14.518)"><path class="b" d="M354.111,164.619h-1.8v-5.21h1.8a1.676,1.676,0,0,1,1.676,1.676v1.857A1.676,1.676,0,0,1,354.111,164.619Z" transform="translate(-331.299 -159.409)"/><path class="b" d="M123.233,164.619h1.8v-5.21h-1.8a1.676,1.676,0,0,0-1.676,1.676v1.857A1.676,1.676,0,0,0,123.233,164.619Z" transform="translate(-121.557 -159.409)"/></g><g transform="translate(11.677 4.585)"><path class="c" d="M201.051,283.062l-1.133-.228a1.722,1.722,0,0,1-1.382-1.688v-1.633h-7.412v1.674a1.722,1.722,0,0,1-1.382,1.688l-.928.187v6.232h12.238v-6.232Z" transform="translate(-185.243 -258.643)"/><path class="c" d="M159.3,72.442h0a9.689,9.689,0,0,1-9.689-9.689V60.031a9.689,9.689,0,0,1,9.689-9.689h0a9.689,9.689,0,0,1,9.689,9.689v2.723A9.689,9.689,0,0,1,159.3,72.442Z" transform="translate(-149.616 -50.342)"/></g><path class="d" d="M230.777,50.342h0a9.7,9.7,0,0,0-2.527.334,9.692,9.692,0,0,1,7.161,9.355v2.723a9.692,9.692,0,0,1-7.161,9.355,9.7,9.7,0,0,0,2.527.334h0a9.689,9.689,0,0,0,9.689-9.689V60.031A9.689,9.689,0,0,0,230.777,50.342Z" transform="translate(-209.411 -45.757)"/><path class="e" d="M98.148,14.561c8.721,0,15.793,3.022,15.816,5.522,0,0,0-.009,0-.013,0-2.687-7.081-20.07-15.817-20.07S82.331,17.383,82.331,20.07c0,0,0,.009,0,.013C82.355,17.583,89.427,14.561,98.148,14.561Z" transform="translate(-76.781)"/><path class="a" d="M233.393,0a7.11,7.11,0,0,0-2.265.383c5.641,1.888,10.321,10.339,12.4,15.644,3.463,1.1,5.67,2.661,5.683,4.056,0,0,0-.009,0-.013C249.21,17.383,242.128,0,233.393,0Z" transform="translate(-212.027)"/><path class="e" d="M64.119,335.419c-.421-3.1-2.133-12.079-8.013-14.439L49.4,318.889H36.124l-6.707,2.091c-5.88,2.36-7.592,11.341-8.014,14.439a.933.933,0,0,0,.925,1.058H63.193A.933.933,0,0,0,64.119,335.419Z" transform="translate(-21.395 -289.847)"/><path class="a" d="M292.059,335.419c-.421-3.1-2.133-12.079-8.013-14.439l-6.707-2.091h-5.164l6.707,2.091c7.141,2.865,8.135,15.5,8.135,15.5h4.117A.933.933,0,0,0,292.059,335.419Z" transform="translate(-249.336 -289.847)"/><path class="f" d="M121.019,315.163H94.5a1.594,1.594,0,0,0-1.594,1.594v15.112h29.707V316.757A1.594,1.594,0,0,0,121.019,315.163Z" transform="translate(-86.393 -286.46)"/><path class="g" d="M351.152,315.163H346.1a1.594,1.594,0,0,1,1.594,1.594v15.112h5.055V316.757A1.594,1.594,0,0,0,351.152,315.163Z" transform="translate(-316.525 -286.46)"/><path class="h" d="M103.166,485.575H71.542a1.086,1.086,0,0,0-1.086,1.086v.235a1.086,1.086,0,0,0,1.086,1.086h31.624a1.086,1.086,0,0,0,1.086-1.086v-.235A1.086,1.086,0,0,0,103.166,485.575Z" transform="translate(-65.988 -441.352)"/><path class="i" d="M389.7,485.575h-4v2.407h4a1.086,1.086,0,0,0,1.086-1.086v-.235A1.086,1.086,0,0,0,389.7,485.575Z" transform="translate(-352.522 -441.352)"/><circle class="j" cx="2.23" cy="2.23" r="2.23" transform="translate(19.137 34.867)"/><g transform="translate(11.677 16.133)"><path class="k" d="M234.326,183.095a6.2,6.2,0,0,0-4.827,0h0l.315.644c.036.073.075.143.117.212a5.271,5.271,0,0,1,3.973.005Z" transform="translate(-222.224 -182.108)"/><path class="k" d="M329.149,181.566v-.507h-3.33v.717c0,.081,0,.162.011.242h3.309C329.145,181.868,329.149,181.717,329.149,181.566Z" transform="translate(-309.772 -180.703)"/><path class="k" d="M149.616,181.06v.507c0,.152,0,.3.012.452h3.318v-.959Z" transform="translate(-149.616 -180.704)"/><path class="k" d="M182.524,180.621h-3.589a.716.716,0,0,1-.716-.716v-2.043a.716.716,0,0,1,.716-.716h4.473a.716.716,0,0,1,.716.716v1.159A1.6,1.6,0,0,1,182.524,180.621Z" transform="translate(-175.614 -177.146)"/><path class="k" d="M270.543,180.621h3.589a.716.716,0,0,0,.716-.716v-2.043a.716.716,0,0,0-.716-.716h-4.473a.716.716,0,0,0-.716.716v1.159A1.6,1.6,0,0,0,270.543,180.621Z" transform="translate(-258.076 -177.146)"/></g><g transform="translate(15.124 16.133)"><path class="l" d="M282.553,177.145h-4.345v3.285a1.593,1.593,0,0,0,.757.19h3.589a.716.716,0,0,0,.716-.716v-2.043A.716.716,0,0,0,282.553,177.145Z" transform="translate(-269.943 -177.145)"/><path class="l" d="M191.806,177.145h-4.348v3.475h3.463a1.6,1.6,0,0,0,1.6-1.6v-1.159A.716.716,0,0,0,191.806,177.145Z" transform="translate(-187.458 -177.145)"/></g></svg>