<svg xmlns="http://www.w3.org/2000/svg" width="437" height="127.77" viewBox="0 0 437 127.77"><defs><style>.a,.b{fill:#fff;}.a{fill-rule:evenodd;}</style></defs><path class="a" d="M177.076,78.906a1.863,1.863,0,0,0,1.45.694h15.548a1.863,1.863,0,0,0,1.464-3.014l-23.8-30.242,20.918-21.292a1.862,1.862,0,0,0-1.328-3.168H176.553a1.863,1.863,0,0,0-1.281.51l-23.92,22.662V1.862A1.863,1.863,0,0,0,149.489,0h-13.01a1.862,1.862,0,0,0-1.862,1.862V77.737a1.862,1.862,0,0,0,1.862,1.863h13.01a1.863,1.863,0,0,0,1.863-1.863V64.9l8.046-7.939Zm-120.7-10c-4.763,7.356-13.472,11.555-24.2,11.555C13.41,80.458,0,68.121,0,50.742S13.41,21.026,32.183,21.026c10.75,0,19.474,4.133,24.23,11.652A3.33,3.33,0,0,1,55,37.357L48.26,40.976a4.367,4.367,0,0,1-5.286-1.255,13.912,13.912,0,0,0-10.9-4.963c-8.475,0-15.126,5.9-15.126,15.984S23.6,66.727,32.076,66.727A13.788,13.788,0,0,0,42.962,61.82,4.382,4.382,0,0,1,48.3,60.555L55,64.211A3.325,3.325,0,0,1,56.38,68.9ZM93.437,21.026c16.95,0,30.038,11.371,30.038,29.93,0,.8-.083,1.806-.171,2.788a1.888,1.888,0,0,1-1.875,1.718H81.816a1.668,1.668,0,0,0-1.651,2.224c2.283,5.86,8,9.362,15.846,9.362a19.559,19.559,0,0,0,13.064-4.335,1.98,1.98,0,0,1,2.7.143l6.49,7.037a1.767,1.767,0,0,1-.01,2.453c-5.337,5.321-12.98,8.112-22.67,8.112-19.954,0-32.935-12.552-32.935-29.716C62.648,33.471,75.844,21.026,93.437,21.026Zm13.78,22.542c-1.82-6.069-6.923-9.883-13.673-9.883-7.616,0-13.088,4.613-14.268,12.015h26.241A1.692,1.692,0,0,0,107.217,43.568Zm143,18.546c0,10.728-9.977,18.345-27.248,18.345-8.983,0-18.056-2.271-23.627-5.391a1.752,1.752,0,0,1-.694-2.286l4-8.618a1.984,1.984,0,0,1,2.745-.857A40.546,40.546,0,0,0,223.611,67.8c7.724,0,10.621-2.038,10.621-5.257,0-3.683-5.307-4.46-11.781-5.407-10.118-1.481-23.084-3.378-23.084-17.443,0-10.942,9.869-18.666,26.712-18.666,7.252,0,15.22,1.522,20.715,4.238a1.756,1.756,0,0,1,.772,2.339l-4.859,10.372a33.144,33.144,0,0,0-16.628-4.291c-7.509,0-10.727,2.36-10.727,5.364,0,3.92,5.5,4.777,12.129,5.81C237.545,46.428,250.216,48.4,250.216,62.113Zm43.935,5.227a2.291,2.291,0,0,0-3.048-1.093,11.975,11.975,0,0,1-4.6.908c-4.506,0-7.187-2.682-7.187-7.617V37.908a1.863,1.863,0,0,1,1.863-1.862h10.65a1.863,1.863,0,0,0,1.863-1.862V25.034a1.863,1.863,0,0,0-1.863-1.862h-10.65a1.863,1.863,0,0,1-1.863-1.862V10.981a1.862,1.862,0,0,0-1.862-1.862H264.142a1.562,1.562,0,0,0-1.562,1.561v4.577a7.915,7.915,0,0,1-7.915,7.915.99.99,0,0,0-.989.989V34.183a1.863,1.863,0,0,0,1.863,1.862h7.041V59.754c0,13.731,7.939,20.7,21.563,20.7,5.149,0,10.191-1.18,13.624-3.648ZM419.586,79.6a1.864,1.864,0,0,1-1.451-.694L400.458,56.964,392.412,64.9V77.737a1.862,1.862,0,0,1-1.862,1.863h-13.01a1.863,1.863,0,0,1-1.863-1.863V33.266l14.833-13.6-14.833,8.658V1.862A1.863,1.863,0,0,1,377.539,0h13.01a1.862,1.862,0,0,1,1.862,1.862V45.057l23.921-22.662a1.862,1.862,0,0,1,1.281-.51h14.771a1.862,1.862,0,0,1,1.328,3.168L412.795,46.344l23.8,30.242a1.862,1.862,0,0,1-1.463,3.014Z"/><path class="a" d="M718.094,30.6a7.887,7.887,0,0,1,7.9,0L756.447,48.23v.2l-31.782,18.55a7.887,7.887,0,0,1-7.885.039L705.543,60.6a1.314,1.314,0,0,0-1.966,1.142V77.236a1.315,1.315,0,0,0,.646,1.132L715.7,85.142a7.888,7.888,0,0,0,9.339-.98l31.222-28.631.184-.169,17.981-16.489-3.719,4.466a58.444,58.444,0,0,0-14.262,33.237v6.949a7.887,7.887,0,0,1-3.935,6.825L726,105.7a7.888,7.888,0,0,1-7.9,0L691.579,90.35a7.887,7.887,0,0,1-3.935-6.825V52.777a7.887,7.887,0,0,1,3.935-6.825Z" transform="translate(-386.752 -16.612)"/><path class="b" d="M779.825,282.349a3.73,3.73,0,0,0,3.825-3.793,3.827,3.827,0,0,0-7.651,0A3.73,3.73,0,0,0,779.825,282.349Z" transform="translate(-436.446 -154.579)"/><path class="b" d="M810.621,264.441c4.456,0,7.965-1.935,9.5-5.264l-4.772-2.554a5.233,5.233,0,0,1-4.771,2.864,5.771,5.771,0,0,1,0-11.534,5.3,5.3,0,0,1,4.771,2.864l4.772-2.516c-1.538-3.406-5.047-5.3-9.5-5.3-6.9,0-11.831,4.451-11.831,10.72S803.719,264.441,810.621,264.441Z" transform="translate(-449.264 -136.671)"/><path class="b" d="M863.093,264.441c6.743,0,11.633-4.451,11.633-10.72S869.836,243,863.093,243s-11.673,4.451-11.673,10.72S856.349,264.441,863.093,264.441Zm0-4.954c-3.076,0-5.442-2.167-5.442-5.767s2.366-5.767,5.442-5.767,5.4,2.167,5.4,5.767S866.169,259.487,863.093,259.487Z" transform="translate(-478.864 -136.671)"/><path class="b" d="M941.249,243a9.615,9.615,0,0,0-7.65,3.406,7.968,7.968,0,0,0-6.98-3.406,8.673,8.673,0,0,0-6.665,2.709v-2.4h-5.876v20.821h6.152V253.682c0-3.715,1.932-5.457,4.654-5.457,2.563,0,4.022,1.548,4.022,4.915v10.991h6.152V253.682c0-3.715,1.932-5.457,4.693-5.457,2.484,0,4.022,1.548,4.022,4.915v10.991h6.152v-11.92C949.925,245.864,946.3,243,941.249,243Z" transform="translate(-514.106 -136.671)"/></svg>