<svg xmlns="http://www.w3.org/2000/svg" width="199.749" height="41.209" viewBox="0 0 199.749 41.209"><defs><style>.a,.b{fill-rule:evenodd;}.b{fill:#0080ff;}</style></defs><path class="a" d="M80.94,36.067a.852.852,0,0,0,.663.317H88.71a.851.851,0,0,0,.669-1.378L78.5,21.183l9.561-9.732A.851.851,0,0,0,87.452,10H80.7a.852.852,0,0,0-.586.233L69.182,20.595V.851A.851.851,0,0,0,68.33,0H62.383a.851.851,0,0,0-.851.851V35.533a.851.851,0,0,0,.851.851H68.33a.851.851,0,0,0,.851-.851V29.667l3.678-3.629ZM25.771,31.5c-2.177,3.363-6.158,5.282-11.06,5.282C6.129,36.777,0,31.138,0,23.194S6.129,9.611,14.711,9.611c4.914,0,8.9,1.889,11.075,5.326a1.522,1.522,0,0,1-.648,2.139L22.059,18.73a2,2,0,0,1-2.416-.573,6.359,6.359,0,0,0-4.982-2.269c-3.874,0-6.914,2.7-6.914,7.306s3.04,7.306,6.914,7.306a6.3,6.3,0,0,0,4.976-2.243,2,2,0,0,1,2.438-.578L25.14,29.35A1.52,1.52,0,0,1,25.771,31.5ZM42.709,9.611c7.748,0,13.73,5.2,13.73,13.681,0,.365-.038.825-.078,1.274a.863.863,0,0,1-.857.785H37.4a.762.762,0,0,0-.754,1.017c1.044,2.679,3.655,4.279,7.243,4.279a8.94,8.94,0,0,0,5.971-1.981.905.905,0,0,1,1.233.065l2.966,3.217a.808.808,0,0,1,0,1.121c-2.44,2.432-5.933,3.708-10.362,3.708-9.121,0-15.054-5.737-15.054-13.583C28.636,15.3,34.667,9.611,42.709,9.611Zm6.3,10.3a6.222,6.222,0,0,0-6.25-4.517,6.246,6.246,0,0,0-6.522,5.492H48.231A.774.774,0,0,0,49.008,19.915Zm65.364,8.477c0,4.9-4.56,8.385-12.455,8.385a23.711,23.711,0,0,1-10.8-2.464.8.8,0,0,1-.317-1.045l1.829-3.939a.907.907,0,0,1,1.255-.392,18.533,18.533,0,0,0,8.327,2.054c3.531,0,4.855-.932,4.855-2.4,0-1.683-2.426-2.038-5.385-2.471-4.625-.677-10.552-1.544-10.552-7.973,0-5,4.511-8.532,12.21-8.532a22.823,22.823,0,0,1,9.469,1.937.8.8,0,0,1,.353,1.069l-2.221,4.741a15.15,15.15,0,0,0-7.6-1.961c-3.432,0-4.9,1.079-4.9,2.452,0,1.792,2.514,2.183,5.544,2.656C108.58,21.222,114.372,22.125,114.372,28.392Zm20.082,2.389a1.047,1.047,0,0,0-1.393-.5,5.473,5.473,0,0,1-2.1.415c-2.059,0-3.285-1.226-3.285-3.482V17.327a.851.851,0,0,1,.851-.851h4.868a.851.851,0,0,0,.851-.851V11.443a.851.851,0,0,0-.851-.851h-4.868a.851.851,0,0,1-.851-.851V5.019a.851.851,0,0,0-.851-.851h-6.084a.714.714,0,0,0-.714.714V6.974a3.618,3.618,0,0,1-3.618,3.618.452.452,0,0,0-.452.452v4.581a.851.851,0,0,0,.851.851h3.219V27.313c0,6.276,3.629,9.464,9.856,9.464a10.932,10.932,0,0,0,6.227-1.667Zm57.335,5.6a.852.852,0,0,1-.663-.317l-8.08-10.029-3.678,3.629v5.866a.851.851,0,0,1-.851.851H172.57a.851.851,0,0,1-.851-.851V15.206l6.78-6.217-6.78,3.957V.851A.851.851,0,0,1,172.57,0h5.947a.851.851,0,0,1,.851.851V20.595L190.3,10.237a.851.851,0,0,1,.585-.233h6.752a.851.851,0,0,1,.607,1.448l-9.561,9.732,10.88,13.823a.851.851,0,0,1-.669,1.378Z"/><path class="b" d="M701.562,30.021a3.605,3.605,0,0,1,3.613,0l13.918,8.06v.089l-14.527,8.479a3.605,3.605,0,0,1-3.6.018l-5.137-2.932a.6.6,0,0,0-.9.522v7.082a.6.6,0,0,0,.3.517l5.247,3.1a3.605,3.605,0,0,0,4.269-.448l14.271-13.087.084-.077,8.219-7.537-1.7,2.041a26.714,26.714,0,0,0-6.519,15.192v3.176a3.605,3.605,0,0,1-1.8,3.12l-12.119,7.018a3.605,3.605,0,0,1-3.613,0l-12.12-7.018a3.605,3.605,0,0,1-1.8-3.12V40.159a3.605,3.605,0,0,1,1.8-3.12Z" transform="translate(-550.109 -23.629)"/></svg>